<svg width="61" height="7" viewBox="0 0 61 7" fill="none" xmlns="http://www.w3.org/2000/svg">
<path fill-rule="evenodd" clip-rule="evenodd" d="M0 3.5C0 1.567 1.567 0 3.5 0H25.5C27.433 0 29 1.567 29 3.5C29 5.433 27.433 7 25.5 7H3.5C1.567 7 0 5.433 0 3.5Z" fill="#4090FE"/>
<path opacity="0.3" fill-rule="evenodd" clip-rule="evenodd" d="M38 3.5C38 1.567 39.567 0 41.5 0C43.433 0 45 1.567 45 3.5C45 5.433 43.433 7 41.5 7C39.567 7 38 5.433 38 3.5Z" fill="#4090FE"/>
<path opacity="0.3" fill-rule="evenodd" clip-rule="evenodd" d="M54 3.5C54 1.567 55.567 0 57.5 0C59.433 0 61 1.567 61 3.5C61 5.433 59.433 7 57.5 7C55.567 7 54 5.433 54 3.5Z" fill="#4090FE"/>
</svg>
