<svg width="61" height="7" viewBox="0 0 61 7" fill="none" xmlns="http://www.w3.org/2000/svg">
<path opacity="0.3" fill-rule="evenodd" clip-rule="evenodd" d="M0 3.5C0 1.567 1.567 0 3.5 0C5.433 0 7 1.567 7 3.5C7 5.433 5.433 7 3.5 7C1.567 7 0 5.433 0 3.5Z" fill="#4090FE"/>
<path fill-rule="evenodd" clip-rule="evenodd" d="M16 3.5C16 1.567 17.567 0 19.5 0H41.5C43.433 0 45 1.567 45 3.5C45 5.433 43.433 7 41.5 7H19.5C17.567 7 16 5.433 16 3.5Z" fill="#4090FE"/>
<path opacity="0.3" fill-rule="evenodd" clip-rule="evenodd" d="M54 3.5C54 1.567 55.567 0 57.5 0C59.433 0 61 1.567 61 3.5C61 5.433 59.433 7 57.5 7C55.567 7 54 5.433 54 3.5Z" fill="#4090FE"/>
</svg>
