<svg width="78" height="22" viewBox="0 0 78 22" fill="none" xmlns="http://www.w3.org/2000/svg">
<path d="M1.61225 4.672H3.62825L9.86825 13.984H9.90025V4.672H11.4362V16H9.48425L3.18025 6.688H3.14825V16H1.61225V4.672ZM15.0666 12.736C15.0666 13.0667 15.136 13.3707 15.2746 13.648C15.424 13.9147 15.616 14.144 15.8506 14.336C16.0853 14.528 16.3573 14.6773 16.6666 14.784C16.976 14.8907 17.296 14.944 17.6266 14.944C18.0746 14.944 18.464 14.8427 18.7946 14.64C19.1253 14.4267 19.4293 14.1493 19.7066 13.808L20.7946 14.64C19.9946 15.6747 18.8746 16.192 17.4346 16.192C16.8373 16.192 16.2933 16.0907 15.8026 15.888C15.3226 15.6853 14.912 15.408 14.5706 15.056C14.24 14.6933 13.984 14.272 13.8026 13.792C13.6213 13.3013 13.5306 12.7733 13.5306 12.208C13.5306 11.6427 13.6266 11.12 13.8186 10.64C14.0213 10.1493 14.2933 9.728 14.6346 9.376C14.9866 9.01333 15.4026 8.73067 15.8826 8.528C16.3626 8.32533 16.8853 8.224 17.4506 8.224C18.1226 8.224 18.688 8.34133 19.1466 8.576C19.616 8.81067 20 9.12 20.2986 9.504C20.5973 9.87733 20.8106 10.304 20.9386 10.784C21.0773 11.2533 21.1466 11.7333 21.1466 12.224V12.736H15.0666ZM19.6106 11.584C19.6 11.264 19.5466 10.9707 19.4506 10.704C19.3653 10.4373 19.232 10.208 19.0506 10.016C18.8693 9.81333 18.64 9.65867 18.3626 9.552C18.096 9.43467 17.7813 9.376 17.4186 9.376C17.0666 9.376 16.7413 9.44533 16.4426 9.584C16.1546 9.712 15.9093 9.88267 15.7066 10.096C15.504 10.3093 15.344 10.5493 15.2266 10.816C15.12 11.072 15.0666 11.328 15.0666 11.584H19.6106ZM24.9492 11.952L22.2612 8.416H24.1172L25.9573 11.104L27.7653 8.416H29.5093L26.9173 11.952L29.9893 16H28.1333L25.8932 12.816L23.6532 16H21.8773L24.9492 11.952ZM35.2301 9.664H33.1661V13.104C33.1661 13.3173 33.1715 13.5307 33.1821 13.744C33.1928 13.9467 33.2301 14.1333 33.2941 14.304C33.3688 14.464 33.4755 14.5973 33.6141 14.704C33.7635 14.8 33.9768 14.848 34.2541 14.848C34.4248 14.848 34.6008 14.832 34.7821 14.8C34.9635 14.768 35.1288 14.7093 35.2781 14.624V15.936C35.1075 16.032 34.8835 16.096 34.6061 16.128C34.3395 16.1707 34.1315 16.192 33.9821 16.192C33.4275 16.192 32.9955 16.1173 32.6861 15.968C32.3875 15.808 32.1635 15.6053 32.0141 15.36C31.8755 15.1147 31.7901 14.8427 31.7581 14.544C31.7368 14.2347 31.7261 13.9253 31.7261 13.616V9.664H30.0621V8.416H31.7261V6.288H33.1661V8.416H35.2301V9.664Z" fill="#4090FE"/>
<path d="M46 12H72.5424" stroke="#4090FE" stroke-width="2"/>
<path fill-rule="evenodd" clip-rule="evenodd" d="M72 18V6L78 12L72 18Z" fill="#4090FE"/>
</svg>
